<?xml version="1.0" standalone="no"?>
<!DOCTYPE svg PUBLIC "-//W3C//DTD SVG 20010904//EN"
 "http://www.w3.org/TR/2001/REC-SVG-20010904/DTD/svg10.dtd">
<svg version="1.0" xmlns="http://www.w3.org/2000/svg"
 width="1640.000000pt" height="664.000000pt" viewBox="0 0 1640.000000 664.000000"
 preserveAspectRatio="xMidYMid meet">

<g transform="translate(0.000000,664.000000) scale(0.100000,-0.100000)"
fill="#000000" stroke="none">
<path d="M1345 5584 c-27 -8 -225 -57 -440 -109 -235 -57 -400 -102 -415 -114
-21 -15 -25 -27 -28 -82 -1 -35 -70 -835 -152 -1777 -83 -942 -150 -1730 -150
-1751 0 -53 26 -75 88 -73 56 2 870 263 883 284 5 7 9 29 9 49 0 19 14 167 30
327 17 161 30 300 30 308 0 9 16 32 35 50 l36 33 201 -266 c444 -589 641 -832
692 -857 50 -23 86 -20 205 19 184 62 646 305 645 340 -1 6 -17 19 -36 30 -49
28 -621 644 -839 904 l-180 213 48 52 c26 28 95 103 154 166 210 227 842 936
867 973 16 25 22 41 15 48 -6 6 -188 -3 -528 -27 -508 -35 -519 -36 -536 -59
-100 -126 -682 -795 -699 -803 -3 -1 9 136 27 305 114 1073 183 1768 177 1785
-3 11 -21 26 -40 34 -39 16 -35 17 -99 -2z"/>
<path d="M12930 4569 c-123 -37 -345 -88 -582 -134 -131 -25 -249 -51 -263
-57 -16 -7 -28 -24 -34 -47 -10 -36 -231 -2514 -231 -2582 0 -23 7 -42 20 -54
41 -37 94 -25 445 100 182 64 364 129 405 143 118 40 113 29 133 302 10 129
24 296 32 370 8 74 31 294 50 488 41 399 52 449 120 540 56 75 111 120 200
164 94 48 166 68 240 68 52 0 68 -5 101 -28 77 -56 124 -208 124 -402 0 -88
-69 -808 -105 -1095 -36 -279 -64 -586 -58 -618 11 -58 82 -64 224 -19 52 16
218 65 369 108 281 80 331 102 316 140 -7 17 7 190 30 389 8 72 41 362 73 645
65 572 68 585 148 685 91 112 229 184 370 193 75 4 86 2 126 -21 58 -34 93
-87 116 -178 38 -150 37 -241 -13 -739 -25 -250 -50 -484 -56 -520 -20 -138
-61 -539 -63 -620 l-2 -85 37 -18 c43 -21 8 -29 496 107 337 94 380 108 394
130 4 6 8 83 8 172 0 129 13 280 65 765 72 657 84 835 66 974 -45 366 -211
581 -511 660 -87 22 -286 31 -391 16 -242 -35 -498 -126 -732 -261 -48 -27
-91 -50 -96 -50 -4 0 -24 26 -44 58 -73 119 -200 208 -352 247 -86 22 -245 19
-361 -6 -199 -43 -331 -90 -578 -208 -82 -39 -150 -70 -152 -68 -1 1 4 68 11
147 20 208 20 220 -7 219 -13 0 -52 -9 -88 -20z"/>
<path d="M5640 4549 c-291 -26 -568 -66 -596 -84 -24 -15 -29 -34 -39 -133 -4
-34 -10 -64 -13 -66 -4 -2 -36 18 -72 45 -79 60 -281 162 -370 186 -51 14
-102 18 -230 17 -147 0 -176 -3 -262 -27 -472 -130 -826 -541 -947 -1102 -48
-223 -54 -563 -12 -752 86 -389 311 -697 626 -856 243 -122 518 -134 750 -32
89 40 212 125 285 199 66 67 80 77 80 52 0 -26 51 -191 77 -249 14 -32 34 -62
43 -67 13 -7 101 26 341 129 469 200 447 184 374 262 -58 62 -76 106 -77 183
0 47 224 2120 246 2274 l5 32 -62 -1 c-34 -1 -100 -5 -147 -10z m-1019 -685
c71 -21 118 -45 212 -107 l77 -52 0 -63 c0 -113 -20 -289 -83 -727 l-62 -429
-79 -53 c-113 -75 -173 -97 -271 -97 -96 0 -157 27 -222 97 -95 103 -136 238
-153 507 -30 466 125 856 370 931 44 13 155 10 211 -7z"/>
<path d="M7430 4509 c-30 -5 -95 -18 -145 -30 -543 -125 -966 -525 -1121
-1058 -68 -233 -75 -547 -18 -776 56 -223 184 -446 344 -598 291 -277 656
-397 1124 -367 254 16 443 61 597 141 l76 40 6 202 c11 319 9 471 -6 491 -11
16 -18 14 -97 -22 -167 -77 -297 -110 -460 -119 -423 -22 -690 217 -690 617 0
445 297 760 717 760 144 0 341 -38 522 -101 91 -31 133 -36 148 -16 6 6 13 57
17 112 5 84 42 363 62 471 5 30 2 34 -63 76 -87 58 -215 109 -373 149 -119 29
-137 31 -355 34 -126 2 -255 0 -285 -6z"/>
<path d="M11450 4509 c-58 -24 -343 -91 -588 -139 -144 -28 -273 -55 -286 -60
-35 -13 -45 -55 -56 -245 -5 -94 -23 -321 -39 -505 -17 -184 -37 -432 -46
-550 -9 -118 -20 -240 -25 -270 -39 -223 -292 -420 -539 -420 -67 0 -108 16
-153 58 -86 80 -85 273 6 1052 33 278 106 995 106 1038 0 29 -3 32 -29 32 -16
0 -41 -4 -54 -9 -50 -19 -470 -112 -642 -142 -99 -17 -190 -37 -201 -44 -33
-21 -38 -56 -114 -915 -17 -190 -40 -433 -52 -540 -28 -265 -28 -510 0 -643
45 -216 154 -369 315 -446 100 -47 181 -68 320 -81 264 -25 513 52 872 269 55
33 101 56 103 51 2 -5 -6 -69 -17 -143 -12 -75 -21 -144 -21 -155 0 -33 28
-33 103 -1 141 60 232 90 535 174 330 91 335 94 346 163 7 44 236 2432 236
2462 0 15 -6 20 -27 19 -16 0 -39 -5 -53 -10z"/>
</g>
</svg>
